<svg id="图层_1" data-name="图层 1" xmlns="http://www.w3.org/2000/svg" viewBox="0 0 200 200"><path d="M161.5,84.9a61.69,61.69,0,0,0-9.9-21.6l9.6-9.4,17.4-17-22.7,8.8-15.1,5.8A63.38,63.38,0,0,0,36.6,100a60.31,60.31,0,0,0,.9,10.5l-10.6,9.4,11.6-4.8a61.69,61.69,0,0,0,9.9,21.6l-9.6,9.4-17.4,17,22.7-8.8,15.1-5.8A63.38,63.38,0,0,0,163.4,100a60.31,60.31,0,0,0-.9-10.5l10.6-9.4ZM91.4,101.5h0l22.1-23.1h0l-61,25.4L100,61.6V72.8h0l30.8-11.9,14.1-5.5,12.8-5-9.1,8.9-40,39.1h0L86.5,121.5h0l61-25.4L100,138.4V127.2h0L68.8,139.3l-13.7,5.3-12.8,5,9.1-8.9Z"/></svg>